<?xml version="1.0" standalone="no"?>
<!DOCTYPE svg PUBLIC "-//W3C//DTD SVG 20010904//EN"
 "http://www.w3.org/TR/2001/REC-SVG-20010904/DTD/svg10.dtd">
<svg version="1.0" xmlns="http://www.w3.org/2000/svg"
 width="260.000000pt" height="260.000000pt" viewBox="0 0 260.000000 260.000000"
 preserveAspectRatio="xMidYMid meet">
<metadata>
Created by potrace 1.11, written by Peter Selinger 2001-2013
</metadata>
<g transform="translate(0.000000,260.000000) scale(0.100000,-0.100000)"
fill="#000000" stroke="none">
<path d="M12 2588 c-9 -9 -12 -71 -12 -218 0 -201 1 -207 22 -227 53 -48 140
-73 254 -73 140 0 244 29 294 82 l20 22 0 -21 c0 -12 12 -31 27 -43 26 -20 37
-21 161 -18 124 3 135 5 152 25 38 47 2 153 -52 153 -16 0 -18 9 -18 84 l0 85
35 27 c47 35 118 39 144 8 22 -28 23 -195 1 -202 -60 -20 -81 -112 -35 -157
23 -24 30 -25 140 -25 110 0 117 1 140 25 35 34 35 96 0 130 -13 14 -30 25
-37 25 -11 0 -13 26 -13 118 1 110 -3 135 -28 190 l-10 22 -298 0 -297 0 4
-41 c4 -42 33 -79 60 -79 9 0 12 -27 12 -105 0 -92 -2 -105 -17 -105 -9 0 -27
-7 -39 -16 -21 -14 -22 -14 -22 5 0 28 -47 61 -86 61 -19 0 -53 -13 -83 -31
-43 -27 -62 -32 -123 -35 -121 -5 -185 29 -194 102 -7 52 21 95 78 123 90 43
197 13 198 -56 1 -58 109 -85 155 -38 23 22 25 32 25 120 l0 95 -273 0 c-199
0 -276 -3 -285 -12z"/>
<path d="M1376 2558 c-84 -98 -87 -262 -8 -366 63 -81 164 -122 295 -119 77 2
102 7 155 31 113 52 171 141 172 263 0 81 -27 156 -74 206 l-27 27 -239 0
-238 0 -36 -42z m327 -72 c65 -24 114 -86 103 -130 -12 -46 -68 -90 -129 -101
-64 -12 -156 36 -178 92 -18 49 36 121 109 143 38 12 52 11 95 -4z"/>
<path d="M1955 2141 c-3 -16 -3 -46 1 -66 5 -27 2 -41 -11 -55 -10 -11 -15
-20 -12 -20 3 0 -34 -39 -84 -87 -50 -49 -96 -99 -102 -112 -15 -32 -102 -64
-130 -49 -13 7 -23 6 -30 -1 -30 -30 -73 9 -128 116 -33 63 -40 93 -29 108 4
6 12 24 18 41 15 48 -1 57 -57 32 -25 -11 -54 -21 -63 -22 -9 0 -63 -67 -123
-152 -102 -146 -212 -274 -234 -274 -6 0 -16 -9 -23 -21 -16 -25 -134 -107
-202 -138 -44 -20 -50 -21 -65 -7 -13 12 -20 13 -29 4 -9 -9 -12 -9 -12 3 0
21 -40 63 -51 52 -4 -4 -9 -30 -11 -58 -3 -38 -7 -49 -18 -46 -26 7 -139 1
-165 -9 -14 -5 -25 -7 -25 -3 0 3 -9 -2 -20 -12 -14 -13 -24 -15 -31 -8 -6 6
-26 7 -54 2 -24 -4 -57 -4 -74 1 -17 5 -33 5 -35 1 -6 -9 -13 -78 -21 -191 -8
-119 -11 -129 -48 -206 -31 -64 -34 -75 -31 -153 3 -99 15 -116 93 -137 58
-15 80 -12 178 23 77 27 143 79 143 113 0 11 3 20 8 20 8 0 168 -170 197 -210
26 -37 55 -55 65 -41 4 8 15 5 33 -9 23 -18 27 -19 28 -6 1 9 2 24 3 34 3 32
15 38 73 37 41 -1 74 -10 114 -30 49 -24 62 -37 100 -101 27 -47 50 -74 61
-74 20 0 55 34 64 63 18 56 -41 208 -96 247 -26 18 -49 23 -123 27 -51 2 -105
9 -122 15 -23 9 -140 79 -174 104 -10 8 53 133 69 137 9 2 34 30 54 60 l37 56
42 -26 c23 -14 44 -30 45 -34 6 -16 92 -10 98 6 4 9 31 27 60 41 30 14 58 32
62 41 13 23 83 26 102 5 9 -9 17 -21 18 -27 10 -50 31 -62 58 -36 14 13 23 15
35 8 9 -6 24 -7 33 -4 17 7 23 47 6 47 -6 0 -4 10 5 23 8 13 12 27 8 30 -3 4
-1 7 5 7 7 0 24 19 39 43 15 23 56 70 91 105 l63 63 92 -1 c129 -2 139 -3 167
-22 13 -10 30 -18 37 -18 7 0 13 -5 13 -11 0 -5 17 -26 38 -44 40 -38 91 -46
125 -21 24 18 22 28 -15 82 -64 95 -33 156 86 171 21 3 54 12 72 19 30 13 34
18 34 54 0 21 5 62 11 90 9 44 16 53 40 62 16 5 29 13 29 17 0 4 11 13 25 19
13 6 32 26 41 44 25 48 64 92 87 98 11 3 24 17 28 32 6 22 2 28 -28 42 -18 9
-49 16 -67 16 -22 0 -46 10 -72 31 -51 41 -128 79 -141 71 -6 -4 -12 -16 -14
-27 -3 -12 -25 -30 -59 -47 -74 -37 -103 -30 -142 33 -34 56 -54 62 -63 20z"/>
<path d="M1653 608 c-13 -6 -25 -19 -28 -29 -25 -79 0 -130 69 -141 14 -2 20
-12 21 -31 2 -22 -1 -27 -14 -21 -74 30 -189 32 -264 3 -90 -33 -165 -110
-189 -193 -12 -43 -14 -168 -3 -186 7 -12 205 -14 205 -2 0 5 -7 23 -16 41
-33 65 13 147 97 172 103 31 215 -86 167 -174 -25 -46 -22 -47 91 -47 l106 0
1 303 c0 201 -3 304 -10 309 -17 12 -208 8 -233 -4z"/>
<path d="M2165 389 c-80 -31 -122 -76 -131 -138 -9 -63 3 -106 40 -146 l33
-35 -27 0 c-27 0 -62 -29 -66 -55 -2 -12 14 -15 81 -15 85 0 108 11 82 40 -9
10 -8 12 5 7 9 -3 43 -9 75 -12 32 -4 78 -12 103 -17 25 -6 89 -13 143 -15
l97 -4 0 40 c0 30 -7 49 -28 72 l-28 32 23 23 c20 20 23 33 23 96 -1 123 -18
133 -275 143 -82 3 -109 0 -150 -16z m219 -178 c16 -6 27 -13 25 -15 -8 -7
-158 17 -154 24 7 11 93 5 129 -9z"/>
</g>
</svg>
